<?xml version="1.0" standalone="no"?>
<!DOCTYPE svg PUBLIC "-//W3C//DTD SVG 20010904//EN"
 "http://www.w3.org/TR/2001/REC-SVG-20010904/DTD/svg10.dtd">
<svg version="1.0" xmlns="http://www.w3.org/2000/svg"
 width="1080.000000pt" height="1080.000000pt" viewBox="0 0 1080.000000 1080.000000"
 preserveAspectRatio="xMidYMid meet">

<g transform="translate(0.000000,1080.000000) scale(0.100000,-0.100000)"
fill="#000000" stroke="none">
<path d="M5305 10394 c-867 -328 -1580 -708 -2200 -1174 -1053 -791 -1784
-1780 -2256 -3052 l-28 -77 9 -768 c26 -2132 32 -2538 35 -2542 7 -6 13 41 30
249 115 1403 391 2553 826 3447 286 586 619 1054 1068 1503 630 630 1394 1110
2394 1507 152 60 195 74 222 69 48 -9 400 -126 526 -174 734 -282 1331 -664
1849 -1182 448 -448 791 -945 1099 -1590 233 -490 444 -1103 586 -1705 14 -60
30 -128 35 -150 10 -41 47 -213 74 -345 16 -78 56 -293 81 -440 36 -207 88
-567 125 -865 49 -402 47 -399 49 -75 3 597 -20 3097 -29 3170 -10 81 -89 330
-175 550 -203 521 -457 982 -773 1399 -755 998 -1857 1737 -3342 2242 -63 21
-114 39 -115 38 0 -1 -40 -16 -90 -35z"/>
<path d="M5140 8654 c-419 -90 -734 -475 -879 -1074 -11 -47 -41 -168 -65
-270 -58 -240 -116 -479 -172 -710 -25 -102 -61 -250 -80 -330 -20 -80 -59
-244 -89 -365 -82 -339 -112 -471 -135 -590 -72 -380 -180 -710 -344 -1050
-117 -241 -209 -390 -527 -850 -392 -567 -512 -834 -594 -1320 -8 -48 11 -9
46 96 142 426 331 756 624 1094 307 353 544 740 716 1172 113 281 171 483 390
1343 224 882 351 1308 491 1645 27 66 57 138 65 160 37 90 156 316 214 405
122 188 262 327 383 380 56 25 174 50 238 50 120 0 328 -62 468 -139 280 -154
563 -445 724 -745 44 -81 147 -326 188 -446 100 -293 161 -571 189 -855 7 -75
15 -121 19 -110 13 36 21 457 10 565 -16 176 -58 284 -275 716 -248 492 -339
631 -550 839 -208 206 -446 340 -689 389 -96 20 -277 20 -366 0z"/>
<path d="M5760 7430 c-341 -46 -603 -317 -770 -795 -53 -154 -154 -553 -214
-845 -105 -512 -179 -1097 -286 -2250 -89 -967 -141 -1423 -201 -1756 -40
-227 -132 -668 -239 -1152 -7 -29 -10 -55 -8 -58 6 -5 108 181 148 271 149
332 255 715 334 1205 38 236 62 421 126 965 30 259 90 682 120 855 6 30 30
186 55 345 25 160 52 331 60 380 8 50 35 221 60 380 25 160 54 346 65 415 11
69 27 170 36 225 52 339 105 538 210 797 108 265 333 659 530 924 30 42 58 82
61 90 6 15 0 16 -87 4z"/>
<path d="M6541 6176 c-2 -91 -56 -356 -103 -506 -30 -96 -127 -295 -188 -386
-66 -99 -242 -274 -337 -337 -136 -90 -272 -150 -432 -192 -52 -14 -96 -27
-98 -29 -6 -6 134 -50 212 -67 33 -7 110 -13 170 -12 93 0 122 4 185 27 103
36 171 79 249 156 231 227 363 662 360 1190 0 85 -4 164 -9 175 -7 16 -9 12
-9 -19z"/>
<path d="M6957 5206 c-9 -23 -46 -181 -67 -286 -101 -501 -118 -1015 -49
-1440 91 -560 324 -1036 693 -1418 60 -62 111 -110 113 -108 3 3 -9 25 -26 49
-61 90 -166 277 -252 451 -239 483 -375 956 -436 1511 -33 306 -19 960 27
1203 8 48 7 65 -3 38z"/>
<path d="M6156 4004 c-14 -121 -71 -278 -138 -382 -78 -121 -236 -250 -393
-320 -128 -57 -443 -132 -553 -132 -17 0 -33 -4 -36 -8 -9 -14 268 -54 372
-54 152 0 266 34 414 123 177 107 270 198 333 326 53 109 63 191 41 350 -21
153 -31 176 -40 97z"/>
<path d="M6430 3649 c0 -4 14 -35 31 -70 72 -144 155 -425 193 -649 44 -264
50 -341 50 -645 0 -261 -3 -320 -22 -450 -50 -332 -109 -498 -307 -870 -73
-137 -136 -260 -140 -273 -11 -36 20 -37 91 -2 199 98 467 491 549 807 60 228
58 554 -5 983 -69 463 -180 811 -335 1044 -36 55 -104 135 -105 125z"/>
</g>
</svg>
